<?xml version="1.0" encoding="UTF-8"?>
<svg version="1.1" xmlns="http://www.w3.org/2000/svg" width="512" height="512">
<path d="M0 0 C3.20691437 2.78343592 6.27164096 5.71054867 9.35009766 8.63378906 C10.59223047 9.68482452 11.84125977 10.72782029 13.10009766 11.75878906 C41.11318743 35.75117654 57.37041612 76.0458318 61.15380859 112.0378418 C62.45892519 129.29817117 61.86264609 146.68258961 58.35009766 163.63378906 C58.21619629 164.31618652 58.08229492 164.99858398 57.94433594 165.70166016 C51.34335012 198.57857013 32.02541753 231.15035815 6.35009766 252.63378906 C6.02009766 253.29378906 5.69009766 253.95378906 5.35009766 254.63378906 C6.22279297 254.75496094 7.09548828 254.87613281 7.99462891 255.00097656 C25.45574851 258.2939933 42.98396883 271.84433263 53.51806641 285.92675781 C67.25540349 306.22521111 75.17349933 329.52494869 70.69775391 354.23535156 C61.0181739 385.72514403 28.56024133 407.98841679 1.18053532 422.98641586 C-1.69761985 424.5945398 -1.69761985 424.5945398 -4.37858677 426.63763809 C-16.7590012 434.81207221 -30.30450991 433.75451705 -44.6182977 433.62095022 C-48.41597541 433.59438284 -52.21346401 433.61449178 -56.01116943 433.628479 C-63.43231585 433.64854493 -70.85274365 433.6262104 -78.27380066 433.5890778 C-86.93267769 433.54732615 -95.59140367 433.54782829 -104.2503624 433.54976812 C-119.7105973 433.55176644 -135.17050015 433.51523991 -150.63061523 433.45703125 C-165.60007781 433.40069986 -180.56924831 433.37234816 -195.53881836 433.375 C-196.46076067 433.37515982 -197.38270298 433.37531965 -198.33258294 433.37548432 C-199.25299967 433.37564574 -200.1734164 433.37580715 -201.12172455 433.37597346 C-218.20935802 433.37874017 -235.29686847 433.35512956 -252.38446192 433.3193606 C-258.4064375 433.30734591 -264.42839028 433.3030484 -270.45037651 433.30123138 C-277.79959043 433.29848915 -285.14859688 433.28044224 -292.49772292 433.24390015 C-296.24054861 433.22556255 -299.98311099 433.21319566 -303.72598457 433.21827698 C-333.09434622 433.2491253 -358.05230609 428.60987967 -379.93505859 407.34472656 C-380.83095703 406.45011719 -381.72685547 405.55550781 -382.64990234 404.63378906 C-383.39111328 403.90417969 -384.13232422 403.17457031 -384.89599609 402.42285156 C-392.81495529 394.11797817 -397.97082486 384.0203615 -402.02490234 373.38378906 C-402.26354004 372.75915771 -402.50217773 372.13452637 -402.74804688 371.4909668 C-410.40150721 350.2654808 -408.76043904 325.21270813 -399.77490234 304.75878906 C-398.75795146 302.70469969 -397.71774689 300.66188676 -396.64990234 298.63378906 C-396.21033203 297.78558594 -395.77076172 296.93738281 -395.31787109 296.06347656 C-385.0296543 277.62177383 -368.9429986 264.69593208 -349.64990234 256.63378906 C-346.68505859 255.92285156 -346.68505859 255.92285156 -344.64990234 255.63378906 C-344.86646484 254.74304688 -345.08302734 253.85230469 -345.30615234 252.93457031 C-352.60697166 219.7801087 -346.7386476 185.15834362 -328.81152344 156.42675781 C-317.37686213 138.7772932 -302.8390744 124.95261639 -284.64990234 114.44628906 C-284.06080078 114.10065918 -283.47169922 113.7550293 -282.86474609 113.39892578 C-280.0938233 111.82154892 -277.5173924 110.59458685 -274.45458984 109.68847656 C-271.16646008 108.71519015 -269.18973254 107.96121353 -266.64990234 105.63378906 C-264.80617476 101.32404538 -264.30671451 96.6161409 -263.58740234 92.01660156 C-259.08750028 63.70643791 -242.60410167 34.12228015 -221.64990234 14.63378906 C-220.84552734 13.82941406 -220.04115234 13.02503906 -219.21240234 12.19628906 C-218.36677734 11.35066406 -217.52115234 10.50503906 -216.64990234 9.63378906 C-216.15876953 9.08464844 -215.66763672 8.53550781 -215.16162109 7.96972656 C-161.42376835 -49.93846952 -58.53024315 -48.46629782 0 0 Z " fill="#CDE0F7" transform="translate(406.64990234375,79.3662109375)"/>
<path d="M0 0 C3.20691437 2.78343592 6.27164096 5.71054867 9.35009766 8.63378906 C10.59223047 9.68482452 11.84125977 10.72782029 13.10009766 11.75878906 C41.11318743 35.75117654 57.37041612 76.0458318 61.15380859 112.0378418 C62.45892519 129.29817117 61.86264609 146.68258961 58.35009766 163.63378906 C58.21619629 164.31618652 58.08229492 164.99858398 57.94433594 165.70166016 C51.72352748 196.68505648 34.67271225 223.79714267 13.35009766 246.63378906 C12.74810547 247.3440625 12.14611328 248.05433594 11.52587891 248.78613281 C8.5462201 251.94069821 6.65691493 253.5321295 2.23681641 253.87597656 C-1.10912664 253.63670497 -4.34402841 253.19640363 -7.64990234 252.63378906 C-9.25328007 252.43965813 -10.85733292 252.25089719 -12.46240234 252.07128906 C-13.51427734 251.92691406 -14.56615234 251.78253906 -15.64990234 251.63378906 C-15.43877808 250.73152588 -15.43877808 250.73152588 -15.22338867 249.81103516 C-11.17890463 231.34793875 -12.84640233 212.79908799 -22.52978516 196.35205078 C-32.07211249 181.71410401 -46.80851304 171.75153996 -63.71240234 167.75878906 C-78.55733787 165.00608579 -92.56528554 167.44471971 -106.64990234 172.63378906 C-107.34212891 171.36148438 -107.34212891 171.36148438 -108.04833984 170.06347656 C-125.11641617 139.16207144 -148.30165229 117.78545093 -181.64990234 105.63378906 C-182.43365234 105.32828125 -183.21740234 105.02277344 -184.02490234 104.70800781 C-186.21515129 103.89910906 -188.39578724 103.24359798 -190.64990234 102.63378906 C-192.17550781 102.21613281 -192.17550781 102.21613281 -193.73193359 101.79003906 C-213.9053522 97.14950826 -235.75514914 98.23216378 -255.64990234 103.63378906 C-256.78556641 103.941875 -257.92123047 104.24996094 -259.09130859 104.56738281 C-261.29234576 105.2071836 -263.47538661 105.90895048 -265.64990234 106.63378906 C-265.82490322 101.45107082 -265.25142199 96.77315921 -264.02490234 91.75878906 C-263.75758301 90.65567383 -263.75758301 90.65567383 -263.48486328 89.53027344 C-256.50689743 61.78370873 -242.80454168 34.30869974 -221.64990234 14.63378906 C-220.84552734 13.82941406 -220.04115234 13.02503906 -219.21240234 12.19628906 C-218.36677734 11.35066406 -217.52115234 10.50503906 -216.64990234 9.63378906 C-216.15876953 9.08464844 -215.66763672 8.53550781 -215.16162109 7.96972656 C-161.42376835 -49.93846952 -58.53024315 -48.46629782 0 0 Z " fill="#E9A857" transform="translate(406.64990234375,79.3662109375)"/>
<path d="M0 0 C1.28572268 1.06561984 2.55591474 2.15017185 3.8125 3.25 C4.58722656 3.86230469 5.36195313 4.47460938 6.16015625 5.10546875 C14.17333464 12.05022336 16.05904748 20.15352857 17.1484375 30.4140625 C17.35090478 36.06757207 16.85758603 40.4367995 13.8125 45.25 C8.32769645 50.11153042 2.55899026 49.83826904 -4.5703125 49.640625 C-9.44802049 49.11387468 -12.18768296 48.07340026 -16.1875 45.25 C-18.23978735 42.08460765 -18.53775383 39.14466983 -18.9375 35.4375 C-19.85543804 29.60966081 -21.39548232 25.8302431 -26.1875 22.25 C-32.44143254 19.58628799 -38.36516562 19.42276406 -44.8125 21.3125 C-49.76420091 24.15514311 -53.36458681 27.78126044 -55.1875 33.25 C-55.30261069 35.54236447 -55.35694566 37.8379234 -55.38037109 40.13305664 C-55.38854858 40.82944244 -55.39672607 41.52582825 -55.40515137 42.24331665 C-55.42996718 44.54892125 -55.44651684 46.85446415 -55.4609375 49.16015625 C-55.46892302 50.34537274 -55.46892302 50.34537274 -55.47706985 51.554533 C-55.50379251 55.74166772 -55.52316504 59.92877281 -55.53759766 64.1159668 C-55.5509024 67.56806133 -55.5786911 71.01955992 -55.61962891 74.47143555 C-55.66918565 78.65062812 -55.69374731 82.82928284 -55.70082474 87.00875664 C-55.70750161 88.59426178 -55.72262987 90.17975661 -55.74671555 91.76509285 C-55.87332241 100.60717126 -55.9544767 108.94430137 -50.1875 116.25 C-44.47267792 120.2794415 -36.89082592 120.04296565 -30.1875 119.25 C-26.48368422 118.25613172 -24.08424127 116.60061339 -21.9140625 113.33203125 C-19.87007593 109.23680993 -19.01802792 105.61897456 -18.75 101.0625 C-18.40179052 95.85555362 -17.04449488 93.75635898 -13.1875 90.25 C-9.04340827 88.12294407 -5.37302293 87.92155612 -0.75 87.875 C1.16619141 87.83246094 1.16619141 87.83246094 3.12109375 87.7890625 C8.2123916 88.42480128 10.94390126 90.54732334 14.66015625 93.93359375 C16.49525097 97.62244516 16.3001399 101.2484044 16.25 105.3125 C16.24170166 106.16505371 16.23340332 107.01760742 16.22485352 107.89599609 C15.89942522 120.08160668 11.50123191 128.16587507 3.2265625 136.9296875 C-8.06607597 147.56129348 -23.53982801 150.83579999 -38.5625 150.6875 C-39.65377197 150.67920166 -40.74504395 150.67090332 -41.86938477 150.66235352 C-54.84333966 150.39123867 -65.08344563 147.79679867 -75.1875 139.25 C-75.84492188 138.7034375 -76.50234375 138.156875 -77.1796875 137.59375 C-86.84077434 128.80340489 -90.67781712 114.80739733 -91.56347656 102.07885742 C-91.75498968 97.74007659 -91.74527636 93.40451341 -91.71875 89.0625 C-91.72145684 87.46459723 -91.72534904 85.86669608 -91.73034668 84.26879883 C-91.73618593 80.94759169 -91.72786202 77.62681987 -91.70898438 74.30566406 C-91.6861978 70.09686097 -91.69935135 65.88907896 -91.72327423 61.68031311 C-91.73788518 58.38896302 -91.73305723 55.09784603 -91.72276306 51.80648804 C-91.72013773 50.25670239 -91.72321344 48.70689396 -91.73268127 47.15713501 C-91.80989213 30.9770731 -89.59995201 15.73990332 -78.37890625 3.234375 C-58.55578648 -15.72328632 -21.90368438 -15.53483312 0 0 Z " fill="#5B9DF7" transform="translate(244.1875,323.75)"/>
<path d="M0 0 C4.22985683 2.18427786 6.98550708 4.96538361 9.24853516 9.16113281 C9.9666645 13.5358628 9.90700694 17.72459235 9.62402344 22.14257812 C9.49876902 24.15737094 9.4378382 26.16670944 9.38525391 28.18457031 C9.04400095 35.45979288 8.53531503 41.75466924 3.24853516 47.16113281 C-2.75918613 51.38032399 -9.20095719 51.95018762 -16.42724609 51.74707031 C-21.58868955 50.83729767 -24.72239497 48.37088853 -27.75146484 44.16113281 C-30.55401164 38.40126599 -30.12356425 32.581904 -30.12207031 26.29614258 C-30.12644557 24.23272243 -30.16281155 22.17144114 -30.20068359 20.10839844 C-30.20455078 18.79677734 -30.20841797 17.48515625 -30.21240234 16.13378906 C-30.22062012 14.94019775 -30.22883789 13.74660645 -30.23730469 12.5168457 C-29.45503098 7.11365371 -26.97420689 4.08442783 -22.68896484 0.84863281 C-15.7666713 -3.1280039 -7.36369271 -2.99286115 0 0 Z " fill="#6DB9F7" transform="translate(131.75146484375,308.8388671875)"/>
<path d="M0 0 C0.72832031 0.29583984 1.45664062 0.59167969 2.20703125 0.89648438 C7.463887 3.10512704 11.6979741 5.49325649 15.0625 10.25 C17.02644996 15.93511832 17.3376676 21.90790503 15.125 27.5625 C11.55523526 31.60823337 7.95008966 35.21084252 2.36621094 35.93017578 C-4.32984022 36.17403106 -9.44097522 34.25924141 -15.5 31.5625 C-16.87865234 30.99402344 -16.87865234 30.99402344 -18.28515625 30.4140625 C-23.88627098 27.98231949 -27.34407477 25.79638784 -30.75 20.6875 C-32.36788547 15.83384359 -32.68894722 10.53116871 -31.06640625 5.6171875 C-28.57480692 0.84076056 -24.96167205 -2.28471606 -19.82519531 -3.9284668 C-12.91066535 -5.20806158 -6.26038388 -2.70000281 0 0 Z " fill="#EEB95E" transform="translate(495.75,268.3125)"/>
<path d="M0 0 C4.43513741 1.24246757 7.15604664 3.73245456 9.4375 7.6875 C11.97907816 12.65367992 11.75982431 18.36290475 10.24682617 23.61401367 C9.21334418 26.37390033 8.07325905 29.0577577 6.875 31.75 C6.49601562 32.66910156 6.11703125 33.58820312 5.7265625 34.53515625 C3.29481949 40.13627098 1.10888784 43.59407477 -4 47 C-8.85365641 48.61788547 -14.15633129 48.93894722 -19.0703125 47.31640625 C-23.38617838 45.0650563 -25.84868266 42.30263468 -28 38 C-30.69707684 27.21169264 -25.29083249 16.30162486 -20 7 C-13.67714485 0.03698039 -9.17768768 -0.92727933 0 0 Z " fill="#EEB95E" transform="translate(388,0)"/>
<path d="M0 0 C8.20289184 4.11839404 11.24728824 14.05466566 14.10986328 22.18261719 C15.98477995 28.42089829 15.85323851 33.93629399 13.125 39.8125 C8.5540741 44.62400094 4.59000044 46.95524787 -2.01171875 47.41015625 C-6.77495747 47.20233606 -10.10887242 45.2722927 -13.68359375 42.265625 C-16.9310108 38.52887113 -18.68578721 34.73509115 -20.5625 30.1875 C-20.91280273 29.3416333 -21.26310547 28.4957666 -21.62402344 27.62426758 C-24.02901706 21.52121646 -25.85085166 15.88192088 -24.25 9.3125 C-22.06473658 4.86103749 -19.3105479 2.12364855 -15.25 -0.6875 C-9.81939165 -2.49770278 -5.15256228 -2.38847747 0 0 Z " fill="#EEB95E" transform="translate(231.25,1.6875)"/>
<path d="M0 0 C4.76237931 4.29775694 7.32400087 7.49821021 7.875 14 C7.77794088 18.80001485 6.46052328 22.4788292 3.5625 26.3125 C1.12757654 28.50882543 -1.49856755 29.88164417 -4.4375 31.3125 C-5.50871094 31.85261719 -6.57992187 32.39273438 -7.68359375 32.94921875 C-16.32203241 37.00824415 -23.61845253 39.3227164 -32.875 36.125 C-37.15924135 33.09468295 -40.18227552 29.44750922 -41.4375 24.3125 C-41.62182075 18.30159552 -40.81359133 13.83478692 -37.14770508 9.00292969 C-33.79854306 5.69249459 -29.61759787 4.1281383 -25.3125 2.375 C-24.425625 1.97732422 -23.53875 1.57964844 -22.625 1.16992188 C-15.20850515 -1.95252994 -7.48124741 -3.67261237 0 0 Z " fill="#EEB95E" transform="translate(504.4375,113.6875)"/>
<path d="M0 0 C0.81533203 0.33966797 1.63066406 0.67933594 2.47070312 1.02929688 C8.10615257 3.46661737 13.32321388 6.14772662 16.6875 11.5 C17.94430246 17.15561106 18.41708535 22.91030165 15.6875 28.1875 C12.19286956 32.78569794 9.3215801 34.89403061 3.63671875 36.078125 C-1.09398021 36.58881929 -4.75047445 35.38862141 -9.125 33.6875 C-9.86709717 33.40898193 -10.60919434 33.13046387 -11.3737793 32.84350586 C-27.04716896 26.82664186 -27.04716896 26.82664186 -30.09765625 20.40234375 C-31.7230228 14.64359472 -31.63519419 9.24298816 -29 3.875 C-20.12627676 -5.95804468 -11.34401521 -5.06705411 0 0 Z " fill="#EEB95E" transform="translate(125.6875,116.6875)"/>
<path d="M0 0 C1.66479492 1.1796875 1.66479492 1.1796875 3 3 C3.37231445 5.49609375 3.37231445 5.49609375 3.36328125 8.4375 C3.36263672 9.49710937 3.36199219 10.55671875 3.36132812 11.6484375 C3.34521484 12.75445312 3.32910156 13.86046875 3.3125 15 C3.31572266 16.10601562 3.31894531 17.21203125 3.32226562 18.3515625 C3.26707949 26.59938076 3.26707949 26.59938076 1 30 C-0.875 30.36328125 -0.875 30.36328125 -3 30.3125 C-3.70125 30.30863281 -4.4025 30.30476563 -5.125 30.30078125 C-7 30 -7 30 -9 28 C-9.45906021 23.68442601 -9.32401051 19.33715845 -9.3125 15 C-9.32861328 13.78570312 -9.34472656 12.57140625 -9.36132812 11.3203125 C-9.36197266 10.16273438 -9.36261719 9.00515625 -9.36328125 7.8125 C-9.36626221 6.74644531 -9.36924316 5.68039062 -9.37231445 4.58203125 C-9.24945068 3.72996094 -9.12658691 2.87789063 -9 2 C-5.53076119 -0.31282587 -4.07794425 -0.42478586 0 0 Z " fill="#A1BCE5" transform="translate(124,318)"/>
</svg>
